<svg width="85" height="799" viewBox="0 0 85 799" fill="none" xmlns="http://www.w3.org/2000/svg">
<path d="M41.1165 787.522V766.58C41.1916 760.5 39.9531 756.072 37.401 753.295C34.849 750.442 31.1711 749.016 26.3672 749.016C21.5634 749.016 17.923 750.442 15.446 753.295C12.894 756.072 11.6179 760.5 11.6179 766.58V787.522H41.1165ZM2.61074 798.218V762.977C2.61074 754.871 4.71242 748.753 8.91578 744.625C13.0441 740.422 18.8612 738.32 26.3672 738.32C33.8732 738.32 39.7279 740.422 43.9313 744.625C48.1346 748.753 50.1988 754.871 50.1237 762.977V787.522H83V798.218H2.61074ZM2.61074 725.21V714.514H37.1759L37.1759 672.181H2.61074V661.484H83V672.181H46.1831L46.1831 714.514H83V725.21H2.61074ZM42.8054 637.764C46.8586 637.764 50.8743 637.239 54.8525 636.188C58.7556 635.137 62.2834 633.486 65.436 631.234C68.5885 628.982 71.1405 626.092 73.0921 622.564C74.9686 619.037 75.9068 614.833 75.9068 609.954C75.9068 605.075 74.9686 600.872 73.0921 597.344C71.1405 593.816 68.5885 590.927 65.436 588.675C62.2834 586.423 58.7556 584.772 54.8525 583.721C50.8743 582.67 46.8586 582.145 42.8054 582.145C38.7521 582.145 34.7739 582.67 30.8708 583.721C26.8926 584.772 23.3273 586.423 20.1748 588.675C17.0223 590.927 14.5078 593.816 12.6313 597.344C10.6797 600.872 9.70391 605.075 9.70391 609.954C9.70391 614.833 10.6797 619.037 12.6313 622.564C14.5078 626.092 17.0223 628.982 20.1748 631.234C23.3273 633.486 26.8926 635.137 30.8708 636.188C34.7739 637.239 38.7521 637.764 42.8054 637.764ZM42.8054 648.46C37.326 648.46 32.0718 647.672 27.0428 646.096C21.9387 644.444 17.4351 642.005 13.532 638.777C9.62885 635.55 6.51386 631.534 4.187 626.73C1.86014 621.926 0.696712 616.334 0.696712 609.954C0.696712 603.574 1.86014 597.982 4.187 593.178C6.51386 588.375 9.62885 584.359 13.532 581.131C17.4351 577.904 21.9387 575.502 27.0428 573.926C32.0718 572.274 37.326 571.449 42.8054 571.449C48.2847 571.449 53.5765 572.274 58.6806 573.926C63.7096 575.502 68.1757 577.904 72.0788 581.131C75.9819 584.359 79.0969 588.375 81.4237 593.178C83.6755 597.982 84.8014 603.574 84.8014 609.954C84.8014 616.334 83.6755 621.926 81.4237 626.73C79.0969 631.534 75.9819 635.55 72.0788 638.777C68.1757 642.005 63.7096 644.444 58.6806 646.096C53.5765 647.672 48.2847 648.46 42.8054 648.46ZM11.6179 540.175V566.971H2.61074L2.61074 502.682H11.6179L11.6179 529.479H83V540.175H11.6179ZM42.8054 487.571C46.8586 487.571 50.8743 487.045 54.8525 485.994C58.7556 484.944 62.2834 483.292 65.436 481.041C68.5885 478.789 71.1405 475.899 73.0921 472.371C74.9686 468.843 75.9068 464.64 75.9068 459.761C75.9068 454.882 74.9686 450.679 73.0921 447.151C71.1405 443.623 68.5885 440.733 65.436 438.482C62.2834 436.23 58.7556 434.578 54.8525 433.528C50.8743 432.477 46.8586 431.951 42.8054 431.951C38.7521 431.951 34.7739 432.477 30.8708 433.528C26.8926 434.578 23.3273 436.23 20.1748 438.482C17.0223 440.733 14.5078 443.623 12.6313 447.151C10.6797 450.679 9.70391 454.882 9.70391 459.761C9.70391 464.64 10.6797 468.843 12.6313 472.371C14.5078 475.899 17.0223 478.789 20.1748 481.041C23.3273 483.292 26.8926 484.944 30.8708 485.994C34.7739 487.045 38.7521 487.571 42.8054 487.571ZM42.8054 498.267C37.326 498.267 32.0718 497.479 27.0428 495.902C21.9387 494.251 17.4351 491.812 13.532 488.584C9.62885 485.356 6.51386 481.341 4.187 476.537C1.86014 471.733 0.696712 466.141 0.696712 459.761C0.696712 453.381 1.86014 447.789 4.187 442.985C6.51386 438.181 9.62885 434.166 13.532 430.938C17.4351 427.71 21.9387 425.308 27.0428 423.732C32.0718 422.081 37.326 421.255 42.8054 421.255C48.2847 421.255 53.5765 422.081 58.6806 423.732C63.7096 425.308 68.1757 427.71 72.0788 430.938C75.9819 434.166 79.0969 438.181 81.4237 442.985C83.6755 447.789 84.8014 453.381 84.8014 459.761C84.8014 466.141 83.6755 471.733 81.4237 476.537C79.0969 481.341 75.9819 485.356 72.0788 488.584C68.1757 491.812 63.7096 494.251 58.6806 495.902C53.5765 497.479 48.2847 498.267 42.8054 498.267ZM37.1759 366.189V344.797C37.1759 338.717 36.125 334.364 34.0233 331.737C31.8466 329.034 28.619 327.683 24.3406 327.683C21.4883 327.683 19.2365 328.134 17.5852 329.034C15.9339 329.935 14.6579 331.174 13.7572 332.75C12.8564 334.326 12.2935 336.165 12.0683 338.267C11.7681 340.293 11.6179 342.47 11.6179 344.797V366.189H37.1759ZM2.61074 376.885V347.724C2.61074 345.998 2.64827 344.159 2.72333 342.207C2.72333 340.181 2.83592 338.192 3.0611 336.24C3.21122 334.289 3.47393 332.487 3.84923 330.836C4.22453 329.109 4.78748 327.646 5.53808 326.445C7.11434 323.818 9.29108 321.603 12.0683 319.802C14.8455 317.925 18.2607 316.987 22.314 316.987C26.5924 316.987 30.3079 318.038 33.4604 320.14C36.5379 322.166 38.8272 325.094 40.3284 328.922H40.5536C41.6044 323.968 43.8562 320.177 47.309 317.55C50.7617 314.923 54.9651 313.61 59.919 313.61C62.8464 313.61 65.6987 314.135 68.4759 315.186C71.2531 316.237 73.7301 317.813 75.9068 319.915C78.0085 321.941 79.7349 324.493 81.086 327.571C82.362 330.573 83 334.063 83 338.042V376.885H2.61074ZM73.9928 366.189V339.393C73.9928 334.664 72.7168 330.986 70.1647 328.359C67.6127 325.657 64.0849 324.306 59.5813 324.306C56.9542 324.306 54.7774 324.793 53.0511 325.769C51.3247 326.745 49.9736 328.059 48.9978 329.71C47.947 331.286 47.2339 333.125 46.8586 335.227C46.4082 337.328 46.1831 339.505 46.1831 341.757V366.189H73.9928ZM42.8054 293.617C46.8586 293.617 50.8743 293.091 54.8525 292.041C58.7556 290.99 62.2834 289.338 65.436 287.087C68.5885 284.835 71.1405 281.945 73.0921 278.417C74.9686 274.889 75.9068 270.686 75.9068 265.807C75.9068 260.928 74.9686 256.725 73.0921 253.197C71.1405 249.669 68.5885 246.779 65.436 244.528C62.2834 242.276 58.7556 240.625 54.8525 239.574C50.8743 238.523 46.8586 237.997 42.8054 237.997C38.7521 237.997 34.7739 238.523 30.8708 239.574C26.8926 240.625 23.3273 242.276 20.1748 244.528C17.0223 246.779 14.5078 249.669 12.6313 253.197C10.6797 256.725 9.70391 260.928 9.70391 265.807C9.70391 270.686 10.6797 274.889 12.6313 278.417C14.5078 281.945 17.0223 284.835 20.1748 287.087C23.3273 289.338 26.8926 290.99 30.8708 292.041C34.7739 293.091 38.7521 293.617 42.8054 293.617ZM42.8054 304.313C37.326 304.313 32.0718 303.525 27.0428 301.949C21.9387 300.297 17.4351 297.858 13.532 294.63C9.62885 291.403 6.51386 287.387 4.187 282.583C1.86014 277.779 0.696712 272.187 0.696712 265.807C0.696712 259.427 1.86014 253.835 4.187 249.031C6.51386 244.227 9.62885 240.212 13.532 236.984C17.4351 233.757 21.9387 231.355 27.0428 229.778C32.0718 228.127 37.326 227.301 42.8054 227.301C48.2847 227.301 53.5765 228.127 58.6806 229.778C63.7096 231.355 68.1757 233.757 72.0788 236.984C75.9819 240.212 79.0969 244.227 81.4237 249.031C83.6755 253.835 84.8014 259.427 84.8014 265.807C84.8014 272.187 83.6755 277.779 81.4237 282.583C79.0969 287.387 75.9819 291.403 72.0788 294.63C68.1757 297.858 63.7096 300.297 58.6806 301.949C53.5765 303.525 48.2847 304.313 42.8054 304.313ZM42.8054 208.075C46.8586 208.075 50.8743 207.549 54.8525 206.499C58.7556 205.448 62.2834 203.796 65.436 201.545C68.5885 199.293 71.1405 196.403 73.0921 192.875C74.9686 189.347 75.9068 185.144 75.9068 180.265C75.9068 175.386 74.9686 171.183 73.0921 167.655C71.1405 164.127 68.5885 161.237 65.436 158.986C62.2834 156.734 58.7556 155.083 54.8525 154.032C50.8743 152.981 46.8586 152.455 42.8054 152.455C38.7521 152.455 34.7739 152.981 30.8708 154.032C26.8926 155.083 23.3273 156.734 20.1748 158.986C17.0223 161.237 14.5078 164.127 12.6313 167.655C10.6797 171.183 9.70391 175.386 9.70391 180.265C9.70391 185.144 10.6797 189.347 12.6313 192.875C14.5078 196.403 17.0223 199.293 20.1748 201.545C23.3273 203.796 26.8926 205.448 30.8708 206.499C34.7739 207.549 38.7521 208.075 42.8054 208.075ZM42.8054 218.771C37.326 218.771 32.0718 217.983 27.0428 216.407C21.9387 214.755 17.4351 212.316 13.532 209.088C9.62885 205.861 6.51386 201.845 4.187 197.041C1.86014 192.237 0.696712 186.645 0.696712 180.265C0.696712 173.885 1.86014 168.293 4.187 163.489C6.51386 158.685 9.62885 154.67 13.532 151.442C17.4351 148.215 21.9387 145.813 27.0428 144.236C32.0718 142.585 37.326 141.759 42.8054 141.759C48.2847 141.759 53.5765 142.585 58.6806 144.236C63.7096 145.813 68.1757 148.215 72.0788 151.442C75.9819 154.67 79.0969 158.685 81.4237 163.489C83.6755 168.293 84.8014 173.885 84.8014 180.265C84.8014 186.645 83.6755 192.237 81.4237 197.041C79.0969 201.845 75.9819 205.861 72.0788 209.088C68.1757 212.316 63.7096 214.755 58.6806 216.407C53.5765 217.983 48.2847 218.771 42.8054 218.771ZM11.6179 110.486V137.282H2.61074V72.9933H11.6179V99.7897H83V110.486H11.6179ZM2.61074 64.0741V53.378H37.1759V11.0442H2.61074V0.348115H83V11.0442H46.1831V53.378H83V64.0741H2.61074Z" fill="black"/>
</svg>
